<?xml version="1.0" encoding="UTF-8" standalone="no"?>
<!DOCTYPE svg PUBLIC "-//W3C//DTD SVG 1.1//EN"
 "http://www.w3.org/Graphics/SVG/1.1/DTD/svg11.dtd">
<!-- Generated by graphviz version 7.0.1 (20221109.1506)
 -->
<!-- Title: ParseTree Pages: 1 -->
<svg width="299pt" height="493pt"
 viewBox="0.00 0.00 298.80 492.79" xmlns="http://www.w3.org/2000/svg" xmlns:xlink="http://www.w3.org/1999/xlink">
<g id="graph0" class="graph" transform="scale(1 1) rotate(0) translate(4 488.79)">
<title>ParseTree</title>
<polygon fill="white" stroke="none" points="-4,4 -4,-488.79 294.8,-488.79 294.8,4 -4,4"/>
<!-- 0 -->
<g id="node1" class="node">
<title>0</title>
<ellipse fill="none" stroke="black" cx="117" cy="-466.79" rx="18" ry="18"/>
<text text-anchor="middle" x="117" y="-463.09" font-family="Times New Roman,serif" font-size="14.00">S</text>
</g>
<!-- 1 -->
<g id="node2" class="node">
<title>1</title>
<ellipse fill="none" stroke="black" cx="117" cy="-394.79" rx="18" ry="18"/>
<text text-anchor="middle" x="117" y="-391.09" font-family="Times New Roman,serif" font-size="14.00">E</text>
</g>
<!-- 0&#45;&gt;1 -->
<g id="edge1" class="edge">
<title>0&#45;&gt;1</title>
<path fill="none" stroke="black" d="M117,-448.49C117,-441.2 117,-432.52 117,-424.32"/>
<polygon fill="black" stroke="black" points="120.5,-424.41 117,-414.41 113.5,-424.41 120.5,-424.41"/>
</g>
<!-- 2 -->
<g id="node3" class="node">
<title>2</title>
<ellipse fill="none" stroke="black" cx="84" cy="-319.99" rx="18" ry="18"/>
<text text-anchor="middle" x="84" y="-316.29" font-family="Times New Roman,serif" font-size="14.00">T</text>
</g>
<!-- 1&#45;&gt;2 -->
<g id="edge2" class="edge">
<title>1&#45;&gt;2</title>
<path fill="none" stroke="black" d="M109.84,-377.99C105.73,-368.93 100.47,-357.33 95.77,-346.96"/>
<polygon fill="black" stroke="black" points="99.09,-345.8 91.77,-338.13 92.71,-348.69 99.09,-345.8"/>
</g>
<!-- 7 -->
<g id="node8" class="node">
<title>7</title>
<ellipse fill="none" stroke="black" cx="181" cy="-319.99" rx="20.6" ry="20.6"/>
<text text-anchor="middle" x="181" y="-316.29" font-family="Times New Roman,serif" font-size="14.00">Ex</text>
</g>
<!-- 1&#45;&gt;7 -->
<g id="edge3" class="edge">
<title>1&#45;&gt;7</title>
<path fill="none" stroke="black" d="M128.44,-380.77C137.21,-370.8 149.55,-356.77 160.07,-344.8"/>
<polygon fill="black" stroke="black" points="162.69,-347.12 166.67,-337.3 157.43,-342.5 162.69,-347.12"/>
</g>
<!-- 3 -->
<g id="node4" class="node">
<title>3</title>
<ellipse fill="none" stroke="black" cx="27" cy="-242.39" rx="18" ry="18"/>
<text text-anchor="middle" x="27" y="-238.69" font-family="Times New Roman,serif" font-size="14.00">F</text>
</g>
<!-- 2&#45;&gt;3 -->
<g id="edge4" class="edge">
<title>2&#45;&gt;3</title>
<path fill="none" stroke="black" d="M73.55,-305.13C65.4,-294.32 53.92,-279.09 44.39,-266.46"/>
<polygon fill="black" stroke="black" points="47.31,-264.51 38.49,-258.64 41.72,-268.73 47.31,-264.51"/>
</g>
<!-- 6 -->
<g id="node7" class="node">
<title>6</title>
<ellipse fill="none" stroke="black" cx="84" cy="-242.39" rx="20.6" ry="20.6"/>
<text text-anchor="middle" x="84" y="-238.69" font-family="Times New Roman,serif" font-size="14.00">Tx</text>
</g>
<!-- 2&#45;&gt;6 -->
<g id="edge5" class="edge">
<title>2&#45;&gt;6</title>
<path fill="none" stroke="black" d="M84,-301.84C84,-293.81 84,-284 84,-274.72"/>
<polygon fill="black" stroke="black" points="87.5,-274.94 84,-264.94 80.5,-274.94 87.5,-274.94"/>
</g>
<!-- 4 -->
<g id="node5" class="node">
<title>4</title>
<ellipse fill="none" stroke="black" cx="27" cy="-164.8" rx="18" ry="18"/>
<text text-anchor="middle" x="27" y="-161.1" font-family="Times New Roman,serif" font-size="14.00">P</text>
</g>
<!-- 3&#45;&gt;4 -->
<g id="edge6" class="edge">
<title>3&#45;&gt;4</title>
<path fill="none" stroke="black" d="M27,-224.24C27,-215.41 27,-204.41 27,-194.35"/>
<polygon fill="black" stroke="black" points="30.5,-194.66 27,-184.66 23.5,-194.66 30.5,-194.66"/>
</g>
<!-- 5 -->
<g id="node6" class="node">
<title>5</title>
<polygon fill="none" stroke="black" points="54,-108 0,-108 0,-72 54,-72 54,-108"/>
<text text-anchor="middle" x="27" y="-86.3" font-family="Times New Roman,serif" font-size="14.00">Num</text>
</g>
<!-- 4&#45;&gt;5 -->
<g id="edge7" class="edge">
<title>4&#45;&gt;5</title>
<path fill="none" stroke="black" d="M27,-146.55C27,-138.54 27,-128.8 27,-119.72"/>
<polygon fill="black" stroke="black" points="30.5,-119.89 27,-109.89 23.5,-119.89 30.5,-119.89"/>
</g>
<!-- 8 -->
<g id="node9" class="node">
<title>8</title>
<polygon fill="none" stroke="black" points="177,-260.39 123,-260.39 123,-224.39 177,-224.39 177,-260.39"/>
<text text-anchor="middle" x="150" y="-238.69" font-family="Times New Roman,serif" font-size="14.00">Minus</text>
</g>
<!-- 7&#45;&gt;8 -->
<g id="edge8" class="edge">
<title>7&#45;&gt;8</title>
<path fill="none" stroke="black" d="M173.5,-300.69C169.88,-291.86 165.46,-281.09 161.43,-271.27"/>
<polygon fill="black" stroke="black" points="164.72,-270.07 157.69,-262.15 158.25,-272.73 164.72,-270.07"/>
</g>
<!-- 9 -->
<g id="node10" class="node">
<title>9</title>
<ellipse fill="none" stroke="black" cx="213" cy="-242.39" rx="18" ry="18"/>
<text text-anchor="middle" x="213" y="-238.69" font-family="Times New Roman,serif" font-size="14.00">T</text>
</g>
<!-- 7&#45;&gt;9 -->
<g id="edge9" class="edge">
<title>7&#45;&gt;9</title>
<path fill="none" stroke="black" d="M188.75,-300.69C192.66,-291.45 197.48,-280.07 201.79,-269.89"/>
<polygon fill="black" stroke="black" points="204.93,-271.44 205.6,-260.87 198.48,-268.71 204.93,-271.44"/>
</g>
<!-- 14 -->
<g id="node15" class="node">
<title>14</title>
<ellipse fill="none" stroke="black" cx="270" cy="-242.39" rx="20.6" ry="20.6"/>
<text text-anchor="middle" x="270" y="-238.69" font-family="Times New Roman,serif" font-size="14.00">Ex</text>
</g>
<!-- 7&#45;&gt;14 -->
<g id="edge10" class="edge">
<title>7&#45;&gt;14</title>
<path fill="none" stroke="black" d="M196.5,-305.82C210.16,-294.22 230.27,-277.14 246,-263.78"/>
<polygon fill="black" stroke="black" points="248.17,-266.53 253.52,-257.39 243.63,-261.2 248.17,-266.53"/>
</g>
<!-- 10 -->
<g id="node11" class="node">
<title>10</title>
<ellipse fill="none" stroke="black" cx="184" cy="-164.8" rx="18" ry="18"/>
<text text-anchor="middle" x="184" y="-161.1" font-family="Times New Roman,serif" font-size="14.00">F</text>
</g>
<!-- 9&#45;&gt;10 -->
<g id="edge11" class="edge">
<title>9&#45;&gt;10</title>
<path fill="none" stroke="black" d="M206.85,-225.36C203.22,-215.91 198.54,-203.69 194.35,-192.79"/>
<polygon fill="black" stroke="black" points="197.63,-191.56 190.78,-183.48 191.1,-194.07 197.63,-191.56"/>
</g>
<!-- 13 -->
<g id="node14" class="node">
<title>13</title>
<ellipse fill="none" stroke="black" cx="241" cy="-164.8" rx="20.6" ry="20.6"/>
<text text-anchor="middle" x="241" y="-161.1" font-family="Times New Roman,serif" font-size="14.00">Tx</text>
</g>
<!-- 9&#45;&gt;13 -->
<g id="edge12" class="edge">
<title>9&#45;&gt;13</title>
<path fill="none" stroke="black" d="M219.08,-224.99C222.31,-216.25 226.39,-205.24 230.15,-195.09"/>
<polygon fill="black" stroke="black" points="233.33,-196.58 233.52,-185.98 226.77,-194.15 233.33,-196.58"/>
</g>
<!-- 11 -->
<g id="node12" class="node">
<title>11</title>
<ellipse fill="none" stroke="black" cx="184" cy="-90" rx="18" ry="18"/>
<text text-anchor="middle" x="184" y="-86.3" font-family="Times New Roman,serif" font-size="14.00">P</text>
</g>
<!-- 10&#45;&gt;11 -->
<g id="edge13" class="edge">
<title>10&#45;&gt;11</title>
<path fill="none" stroke="black" d="M184,-146.55C184,-138.54 184,-128.8 184,-119.72"/>
<polygon fill="black" stroke="black" points="187.5,-119.89 184,-109.89 180.5,-119.89 187.5,-119.89"/>
</g>
<!-- 12 -->
<g id="node13" class="node">
<title>12</title>
<polygon fill="none" stroke="black" points="211,-36 157,-36 157,0 211,0 211,-36"/>
<text text-anchor="middle" x="184" y="-14.3" font-family="Times New Roman,serif" font-size="14.00">Num</text>
</g>
<!-- 11&#45;&gt;12 -->
<g id="edge14" class="edge">
<title>11&#45;&gt;12</title>
<path fill="none" stroke="black" d="M184,-71.7C184,-64.41 184,-55.73 184,-47.54"/>
<polygon fill="black" stroke="black" points="187.5,-47.62 184,-37.62 180.5,-47.62 187.5,-47.62"/>
</g>
</g>
</svg>
