<?xml version="1.0" encoding="UTF-8" standalone="no"?>
<!DOCTYPE svg PUBLIC "-//W3C//DTD SVG 1.1//EN"
 "http://www.w3.org/Graphics/SVG/1.1/DTD/svg11.dtd">
<!-- Generated by graphviz version 7.0.1 (20221109.1506)
 -->
<!-- Title: ParseTree Pages: 1 -->
<svg width="381pt" height="592pt"
 viewBox="0.00 0.00 381.00 591.58" xmlns="http://www.w3.org/2000/svg" xmlns:xlink="http://www.w3.org/1999/xlink">
<g id="graph0" class="graph" transform="scale(1 1) rotate(0) translate(4 587.58)">
<title>ParseTree</title>
<polygon fill="white" stroke="none" points="-4,4 -4,-587.58 377,-587.58 377,4 -4,4"/>
<!-- not_term_0 -->
<g id="node1" class="node">
<title>not_term_0</title>
<ellipse fill="none" stroke="black" cx="181" cy="-565.58" rx="18" ry="18"/>
<text text-anchor="middle" x="181" y="-561.88" font-family="Times New Roman,serif" font-size="14.00">X</text>
</g>
<!-- not_term_1 -->
<g id="node2" class="node">
<title>not_term_1</title>
<ellipse fill="none" stroke="black" cx="147" cy="-489.48" rx="18" ry="18"/>
<text text-anchor="middle" x="147" y="-485.78" font-family="Times New Roman,serif" font-size="14.00">O</text>
</g>
<!-- not_term_0&#45;&gt;not_term_1 -->
<g id="edge1" class="edge">
<title>not_term_0&#45;&gt;not_term_1</title>
<path fill="none" stroke="black" d="M173.79,-548.87C169.49,-539.5 163.93,-527.37 158.98,-516.6"/>
<polygon fill="black" stroke="black" points="162.3,-515.43 154.95,-507.8 155.94,-518.35 162.3,-515.43"/>
</g>
<!-- not_term_10 -->
<g id="node11" class="node">
<title>not_term_10</title>
<ellipse fill="none" stroke="black" cx="246" cy="-489.48" rx="22.2" ry="22.2"/>
<text text-anchor="middle" x="246" y="-485.78" font-family="Times New Roman,serif" font-size="14.00">X_</text>
</g>
<!-- not_term_0&#45;&gt;not_term_10 -->
<g id="edge2" class="edge">
<title>not_term_0&#45;&gt;not_term_10</title>
<path fill="none" stroke="black" d="M192.62,-551.33C201.44,-541.28 213.81,-527.18 224.42,-515.09"/>
<polygon fill="black" stroke="black" points="226.8,-517.68 230.76,-507.86 221.53,-513.06 226.8,-517.68"/>
</g>
<!-- not_term_2 -->
<g id="node3" class="node">
<title>not_term_2</title>
<ellipse fill="none" stroke="black" cx="85" cy="-408.64" rx="18" ry="18"/>
<text text-anchor="middle" x="85" y="-404.94" font-family="Times New Roman,serif" font-size="14.00">A</text>
</g>
<!-- not_term_1&#45;&gt;not_term_2 -->
<g id="edge3" class="edge">
<title>not_term_1&#45;&gt;not_term_2</title>
<path fill="none" stroke="black" d="M136.2,-474.75C127.01,-463.06 113.63,-446.04 102.85,-432.33"/>
<polygon fill="black" stroke="black" points="105.75,-430.36 96.82,-424.67 100.25,-434.69 105.75,-430.36"/>
</g>
<!-- not_term_8 -->
<g id="node9" class="node">
<title>not_term_8</title>
<ellipse fill="none" stroke="black" cx="147" cy="-408.64" rx="23" ry="23"/>
<text text-anchor="middle" x="147" y="-404.94" font-family="Times New Roman,serif" font-size="14.00">O_</text>
</g>
<!-- not_term_1&#45;&gt;not_term_8 -->
<g id="edge4" class="edge">
<title>not_term_1&#45;&gt;not_term_8</title>
<path fill="none" stroke="black" d="M147,-470.98C147,-462.79 147,-452.75 147,-443.17"/>
<polygon fill="black" stroke="black" points="150.5,-443.4 147,-433.4 143.5,-443.4 150.5,-443.4"/>
</g>
<!-- not_term_3 -->
<g id="node4" class="node">
<title>not_term_3</title>
<ellipse fill="none" stroke="black" cx="27" cy="-327.14" rx="18" ry="18"/>
<text text-anchor="middle" x="27" y="-323.44" font-family="Times New Roman,serif" font-size="14.00">N</text>
</g>
<!-- not_term_2&#45;&gt;not_term_3 -->
<g id="edge5" class="edge">
<title>not_term_2&#45;&gt;not_term_3</title>
<path fill="none" stroke="black" d="M74.63,-393.42C66.14,-381.78 53.94,-365.07 44.02,-351.47"/>
<polygon fill="black" stroke="black" points="46.89,-349.47 38.17,-343.45 41.24,-353.59 46.89,-349.47"/>
</g>
<!-- not_term_6 -->
<g id="node7" class="node">
<title>not_term_6</title>
<ellipse fill="none" stroke="black" cx="85" cy="-327.14" rx="22.2" ry="22.2"/>
<text text-anchor="middle" x="85" y="-323.44" font-family="Times New Roman,serif" font-size="14.00">A_</text>
</g>
<!-- not_term_2&#45;&gt;not_term_6 -->
<g id="edge6" class="edge">
<title>not_term_2&#45;&gt;not_term_6</title>
<path fill="none" stroke="black" d="M85,-390.39C85,-381.79 85,-371.09 85,-361.01"/>
<polygon fill="black" stroke="black" points="88.5,-361.13 85,-351.13 81.5,-361.13 88.5,-361.13"/>
</g>
<!-- not_term_4 -->
<g id="node5" class="node">
<title>not_term_4</title>
<ellipse fill="none" stroke="black" cx="27" cy="-246.29" rx="18" ry="18"/>
<text text-anchor="middle" x="27" y="-242.59" font-family="Times New Roman,serif" font-size="14.00">T</text>
</g>
<!-- not_term_3&#45;&gt;not_term_4 -->
<g id="edge7" class="edge">
<title>not_term_3&#45;&gt;not_term_4</title>
<path fill="none" stroke="black" d="M27,-308.64C27,-299.05 27,-286.91 27,-275.97"/>
<polygon fill="black" stroke="black" points="30.5,-276.26 27,-266.26 23.5,-276.26 30.5,-276.26"/>
</g>
<!-- term_5 -->
<g id="node6" class="node">
<title>term_5</title>
<polygon fill="none" stroke="black" points="54,-184.1 0,-184.1 0,-148.1 54,-148.1 54,-184.1"/>
<text text-anchor="middle" x="27" y="-162.4" font-family="Times New Roman,serif" font-size="14.00">Var</text>
</g>
<!-- not_term_4&#45;&gt;term_5 -->
<g id="edge8" class="edge">
<title>not_term_4&#45;&gt;term_5</title>
<path fill="none" stroke="black" d="M27,-227.94C27,-218.52 27,-206.64 27,-195.88"/>
<polygon fill="black" stroke="black" points="30.5,-195.92 27,-185.92 23.5,-195.92 30.5,-195.92"/>
</g>
<!-- term_7 -->
<g id="node8" class="node">
<title>term_7</title>
<polygon fill="none" stroke="black" points="117,-264.29 63,-264.29 63,-228.29 117,-228.29 117,-264.29"/>
<text text-anchor="middle" x="90" y="-242.59" font-family="Times New Roman,serif" font-size="14.00">Eps</text>
</g>
<!-- not_term_6&#45;&gt;term_7 -->
<g id="edge9" class="edge">
<title>not_term_6&#45;&gt;term_7</title>
<path fill="none" stroke="black" d="M86.37,-304.6C86.93,-295.75 87.59,-285.37 88.19,-275.9"/>
<polygon fill="black" stroke="black" points="91.67,-276.28 88.81,-266.08 84.68,-275.84 91.67,-276.28"/>
</g>
<!-- term_9 -->
<g id="node10" class="node">
<title>term_9</title>
<polygon fill="none" stroke="black" points="179,-345.14 125,-345.14 125,-309.14 179,-309.14 179,-345.14"/>
<text text-anchor="middle" x="152" y="-323.44" font-family="Times New Roman,serif" font-size="14.00">Eps</text>
</g>
<!-- not_term_8&#45;&gt;term_9 -->
<g id="edge10" class="edge">
<title>not_term_8&#45;&gt;term_9</title>
<path fill="none" stroke="black" d="M148.39,-385.49C148.95,-376.64 149.6,-366.33 150.19,-356.91"/>
<polygon fill="black" stroke="black" points="153.67,-357.35 150.8,-347.15 146.68,-356.91 153.67,-357.35"/>
</g>
<!-- term_11 -->
<g id="node12" class="node">
<title>term_11</title>
<polygon fill="none" stroke="black" points="242,-426.64 188,-426.64 188,-390.64 242,-390.64 242,-426.64"/>
<text text-anchor="middle" x="215" y="-404.94" font-family="Times New Roman,serif" font-size="14.00">Xor</text>
</g>
<!-- not_term_10&#45;&gt;term_11 -->
<g id="edge11" class="edge">
<title>not_term_10&#45;&gt;term_11</title>
<path fill="none" stroke="black" d="M238.18,-468.59C234.49,-459.21 230.03,-447.85 226,-437.62"/>
<polygon fill="black" stroke="black" points="229.34,-436.54 222.42,-428.52 222.83,-439.11 229.34,-436.54"/>
</g>
<!-- not_term_12 -->
<g id="node13" class="node">
<title>not_term_12</title>
<ellipse fill="none" stroke="black" cx="278" cy="-408.64" rx="18" ry="18"/>
<text text-anchor="middle" x="278" y="-404.94" font-family="Times New Roman,serif" font-size="14.00">O</text>
</g>
<!-- not_term_10&#45;&gt;not_term_12 -->
<g id="edge12" class="edge">
<title>not_term_10&#45;&gt;not_term_12</title>
<path fill="none" stroke="black" d="M254.07,-468.59C258.06,-458.77 262.92,-446.79 267.22,-436.2"/>
<polygon fill="black" stroke="black" points="270.35,-437.8 270.87,-427.21 263.86,-435.16 270.35,-437.8"/>
</g>
<!-- not_term_26 -->
<g id="node27" class="node">
<title>not_term_26</title>
<ellipse fill="none" stroke="black" cx="341" cy="-408.64" rx="22.2" ry="22.2"/>
<text text-anchor="middle" x="341" y="-404.94" font-family="Times New Roman,serif" font-size="14.00">X_</text>
</g>
<!-- not_term_10&#45;&gt;not_term_26 -->
<g id="edge13" class="edge">
<title>not_term_10&#45;&gt;not_term_26</title>
<path fill="none" stroke="black" d="M262.55,-474.75C277.17,-462.61 298.72,-444.72 315.54,-430.77"/>
<polygon fill="black" stroke="black" points="317.7,-433.52 323.16,-424.44 313.23,-428.14 317.7,-433.52"/>
</g>
<!-- not_term_13 -->
<g id="node14" class="node">
<title>not_term_13</title>
<ellipse fill="none" stroke="black" cx="215" cy="-327.14" rx="18" ry="18"/>
<text text-anchor="middle" x="215" y="-323.44" font-family="Times New Roman,serif" font-size="14.00">A</text>
</g>
<!-- not_term_12&#45;&gt;not_term_13 -->
<g id="edge14" class="edge">
<title>not_term_12&#45;&gt;not_term_13</title>
<path fill="none" stroke="black" d="M267.03,-393.79C257.63,-381.93 243.92,-364.63 232.93,-350.77"/>
<polygon fill="black" stroke="black" points="235.74,-348.68 226.79,-343.01 230.26,-353.03 235.74,-348.68"/>
</g>
<!-- not_term_24 -->
<g id="node25" class="node">
<title>not_term_24</title>
<ellipse fill="none" stroke="black" cx="278" cy="-327.14" rx="23" ry="23"/>
<text text-anchor="middle" x="278" y="-323.44" font-family="Times New Roman,serif" font-size="14.00">O_</text>
</g>
<!-- not_term_12&#45;&gt;not_term_24 -->
<g id="edge15" class="edge">
<title>not_term_12&#45;&gt;not_term_24</title>
<path fill="none" stroke="black" d="M278,-390.39C278,-381.98 278,-371.58 278,-361.7"/>
<polygon fill="black" stroke="black" points="281.5,-362.01 278,-352.01 274.5,-362.01 281.5,-362.01"/>
</g>
<!-- not_term_14 -->
<g id="node15" class="node">
<title>not_term_14</title>
<ellipse fill="none" stroke="black" cx="155" cy="-246.29" rx="18" ry="18"/>
<text text-anchor="middle" x="155" y="-242.59" font-family="Times New Roman,serif" font-size="14.00">N</text>
</g>
<!-- not_term_13&#45;&gt;not_term_14 -->
<g id="edge16" class="edge">
<title>not_term_13&#45;&gt;not_term_14</title>
<path fill="none" stroke="black" d="M204.55,-312.41C195.66,-300.72 182.7,-283.7 172.27,-269.99"/>
<polygon fill="black" stroke="black" points="175.29,-268.18 166.45,-262.34 169.72,-272.42 175.29,-268.18"/>
</g>
<!-- not_term_17 -->
<g id="node18" class="node">
<title>not_term_17</title>
<ellipse fill="none" stroke="black" cx="215" cy="-246.29" rx="22.2" ry="22.2"/>
<text text-anchor="middle" x="215" y="-242.59" font-family="Times New Roman,serif" font-size="14.00">A_</text>
</g>
<!-- not_term_13&#45;&gt;not_term_17 -->
<g id="edge17" class="edge">
<title>not_term_13&#45;&gt;not_term_17</title>
<path fill="none" stroke="black" d="M215,-308.64C215,-300.32 215,-290.09 215,-280.38"/>
<polygon fill="black" stroke="black" points="218.5,-280.48 215,-270.48 211.5,-280.48 218.5,-280.48"/>
</g>
<!-- not_term_15 -->
<g id="node16" class="node">
<title>not_term_15</title>
<ellipse fill="none" stroke="black" cx="121" cy="-166.1" rx="18" ry="18"/>
<text text-anchor="middle" x="121" y="-162.4" font-family="Times New Roman,serif" font-size="14.00">T</text>
</g>
<!-- not_term_14&#45;&gt;not_term_15 -->
<g id="edge18" class="edge">
<title>not_term_14&#45;&gt;not_term_15</title>
<path fill="none" stroke="black" d="M148.12,-229.47C143.63,-219.15 137.67,-205.43 132.47,-193.49"/>
<polygon fill="black" stroke="black" points="135.79,-192.33 128.59,-184.56 129.37,-195.12 135.79,-192.33"/>
</g>
<!-- term_16 -->
<g id="node17" class="node">
<title>term_16</title>
<polygon fill="none" stroke="black" points="148,-108 94,-108 94,-72 148,-72 148,-108"/>
<text text-anchor="middle" x="121" y="-86.3" font-family="Times New Roman,serif" font-size="14.00">Var</text>
</g>
<!-- not_term_15&#45;&gt;term_16 -->
<g id="edge19" class="edge">
<title>not_term_15&#45;&gt;term_16</title>
<path fill="none" stroke="black" d="M121,-147.91C121,-139.56 121,-129.28 121,-119.78"/>
<polygon fill="black" stroke="black" points="124.5,-119.86 121,-109.86 117.5,-119.86 124.5,-119.86"/>
</g>
<!-- term_18 -->
<g id="node19" class="node">
<title>term_18</title>
<polygon fill="none" stroke="black" points="211,-184.1 157,-184.1 157,-148.1 211,-148.1 211,-184.1"/>
<text text-anchor="middle" x="184" y="-162.4" font-family="Times New Roman,serif" font-size="14.00">And</text>
</g>
<!-- not_term_17&#45;&gt;term_18 -->
<g id="edge20" class="edge">
<title>not_term_17&#45;&gt;term_18</title>
<path fill="none" stroke="black" d="M207.02,-225.16C203.39,-216.02 199.05,-205.05 195.11,-195.13"/>
<polygon fill="black" stroke="black" points="198.4,-193.92 191.46,-185.92 191.89,-196.5 198.4,-193.92"/>
</g>
<!-- not_term_19 -->
<g id="node20" class="node">
<title>not_term_19</title>
<ellipse fill="none" stroke="black" cx="247" cy="-166.1" rx="18" ry="18"/>
<text text-anchor="middle" x="247" y="-162.4" font-family="Times New Roman,serif" font-size="14.00">N</text>
</g>
<!-- not_term_17&#45;&gt;not_term_19 -->
<g id="edge21" class="edge">
<title>not_term_17&#45;&gt;not_term_19</title>
<path fill="none" stroke="black" d="M223.24,-225.16C227.16,-215.59 231.89,-204.02 236.1,-193.73"/>
<polygon fill="black" stroke="black" points="239.28,-195.21 239.83,-184.63 232.8,-192.56 239.28,-195.21"/>
</g>
<!-- not_term_22 -->
<g id="node23" class="node">
<title>not_term_22</title>
<ellipse fill="none" stroke="black" cx="307" cy="-166.1" rx="22.2" ry="22.2"/>
<text text-anchor="middle" x="307" y="-162.4" font-family="Times New Roman,serif" font-size="14.00">A_</text>
</g>
<!-- not_term_17&#45;&gt;not_term_22 -->
<g id="edge22" class="edge">
<title>not_term_17&#45;&gt;not_term_22</title>
<path fill="none" stroke="black" d="M231.45,-231.31C245.49,-219.38 265.9,-202.03 281.97,-188.37"/>
<polygon fill="black" stroke="black" points="283.88,-191.34 289.23,-182.2 279.34,-186.01 283.88,-191.34"/>
</g>
<!-- not_term_20 -->
<g id="node21" class="node">
<title>not_term_20</title>
<ellipse fill="none" stroke="black" cx="245" cy="-90" rx="18" ry="18"/>
<text text-anchor="middle" x="245" y="-86.3" font-family="Times New Roman,serif" font-size="14.00">T</text>
</g>
<!-- not_term_19&#45;&gt;not_term_20 -->
<g id="edge23" class="edge">
<title>not_term_19&#45;&gt;not_term_20</title>
<path fill="none" stroke="black" d="M246.54,-147.91C246.31,-139.56 246.03,-129.28 245.78,-119.78"/>
<polygon fill="black" stroke="black" points="249.28,-119.76 245.51,-109.86 242.28,-119.95 249.28,-119.76"/>
</g>
<!-- term_21 -->
<g id="node22" class="node">
<title>term_21</title>
<polygon fill="none" stroke="black" points="272,-36 218,-36 218,0 272,0 272,-36"/>
<text text-anchor="middle" x="245" y="-14.3" font-family="Times New Roman,serif" font-size="14.00">Var</text>
</g>
<!-- not_term_20&#45;&gt;term_21 -->
<g id="edge24" class="edge">
<title>not_term_20&#45;&gt;term_21</title>
<path fill="none" stroke="black" d="M245,-71.7C245,-64.41 245,-55.73 245,-47.54"/>
<polygon fill="black" stroke="black" points="248.5,-47.62 245,-37.62 241.5,-47.62 248.5,-47.62"/>
</g>
<!-- term_23 -->
<g id="node24" class="node">
<title>term_23</title>
<polygon fill="none" stroke="black" points="335,-108 281,-108 281,-72 335,-72 335,-108"/>
<text text-anchor="middle" x="308" y="-86.3" font-family="Times New Roman,serif" font-size="14.00">Eps</text>
</g>
<!-- not_term_22&#45;&gt;term_23 -->
<g id="edge25" class="edge">
<title>not_term_22&#45;&gt;term_23</title>
<path fill="none" stroke="black" d="M307.29,-143.67C307.39,-136.17 307.51,-127.64 307.61,-119.65"/>
<polygon fill="black" stroke="black" points="311.11,-119.72 307.75,-109.67 304.11,-119.62 311.11,-119.72"/>
</g>
<!-- term_25 -->
<g id="node26" class="node">
<title>term_25</title>
<polygon fill="none" stroke="black" points="309,-264.29 255,-264.29 255,-228.29 309,-228.29 309,-264.29"/>
<text text-anchor="middle" x="282" y="-242.59" font-family="Times New Roman,serif" font-size="14.00">Eps</text>
</g>
<!-- not_term_24&#45;&gt;term_25 -->
<g id="edge26" class="edge">
<title>not_term_24&#45;&gt;term_25</title>
<path fill="none" stroke="black" d="M279.14,-303.76C279.57,-295.15 280.08,-285.19 280.54,-276.06"/>
<polygon fill="black" stroke="black" points="284.03,-276.4 281.04,-266.23 277.04,-276.04 284.03,-276.4"/>
</g>
<!-- term_27 -->
<g id="node28" class="node">
<title>term_27</title>
<polygon fill="none" stroke="black" points="373,-345.14 319,-345.14 319,-309.14 373,-309.14 373,-345.14"/>
<text text-anchor="middle" x="346" y="-323.44" font-family="Times New Roman,serif" font-size="14.00">Eps</text>
</g>
<!-- not_term_26&#45;&gt;term_27 -->
<g id="edge27" class="edge">
<title>not_term_26&#45;&gt;term_27</title>
<path fill="none" stroke="black" d="M342.34,-386.33C342.91,-377.24 343.59,-366.5 344.2,-356.73"/>
<polygon fill="black" stroke="black" points="347.68,-357.19 344.81,-346.99 340.69,-356.75 347.68,-357.19"/>
</g>
</g>
</svg>
